<svg xmlns="http://www.w3.org/2000/svg" viewBox="0 0 971 1000" preserveAspectRatio="xMidYMid meet">
  <g transform="translate(0,1000) scale(0.1,-0.1)" fill="#ffffff">
    <path d="M0 5000 l0 -5000 2323 0 2322 0 -81 33 c-330 134 -684 496 -1036 1057 l-78 125 0 2005 c0 1924 -1 2007 -19 2045 -67 149 -281 152 -358 6 l-23 -44 0 -1631 -1 -1631 -45 95 c-198 413 -438 1001 -634 1550 -248 695 -482 1485 -524 1770 -57 391 -45 1073 39 2155 49 632 166 1901 177 1929 30 74 105 126 184 126 59 0 127 -31 158 -74 13 -17 51 -108 85 -203 191 -538 368 -839 538 -916 94 -42 138 -33 673 135 374 117 641 189 825 224 128 24 176 28 325 28 292 1 489 -43 1200 -264 389 -121 466 -142 532 -143 209 -2 408 290 637 933 35 96 73 189 87 206 51 68 166 94 242 55 83 -43 107 -92 121 -256 179 -1990 202 -2298 223 -2957 13 -412 3 -762 -28 -973 -45 -307 -296 -1146 -559 -1870 -166 -458 -411 -1053 -583 -1420 l-62 -130 0 1226 0 1227 -28 53 c-22 43 -38 59 -82 82 -47 25 -63 28 -109 23 -69 -6 -126 -45 -158 -105 l-23 -44 0 -1606 0 -1606 -88 -138 c-368 -578 -731 -942 -1054 -1057 -52 -18 -17 -19 2270 -19 l2322 -1 0 5000 0 5000 -2317 -1 c-1372 -1 -2269 -5 -2198 -10 461 -33 916 -131 1345 -291 137 -51 418 -173 434 -188 6 -6 -103 -324 -119 -348 -1 -1 -58 23 -126 54 -461 211 -913 335 -1429 391 -216 23 -677 23 -895 -1 -503 -55 -944 -173 -1383 -373 -67 -31 -124 -54 -126 -52 -2 2 -40 77 -85 167 l-81 163 67 30 c177 80 249 110 388 162 453 167 874 254 1405 290 25 2 -998 4 -2272 5 l-2318 2 0 -5000z m1705 3793 c-3 -21 -14 -144 -26 -273 -18 -211 -22 -237 -42 -260 -12 -13 -55 -60 -96 -104 -509 -552 -900 -1319 -1056 -2075 -69 -330 -90 -553 -89 -926 0 -413 34 -695 125 -1065 128 -519 369 -1050 671 -1480 491 -697 1167 -1243 1938 -1565 l115 -48 102 -157 c57 -86 132 -196 168 -244 36 -49 64 -90 61 -93 -7 -7 -235 63 -384 118 -616 230 -1138 549 -1621 993 -228 209 -466 478 -653 739 -263 367 -508 847 -653 1281 -106 320 -182 669 -221 1021 -22 199 -29 623 -15 830 73 1038 451 1979 1122 2790 88 107 532 555 549 555 6 0 8 -15 5 -37z m6497 -142 c278 -271 460 -486 657 -776 483 -713 761 -1519 822 -2390 14 -207 7 -631 -15 -830 -140 -1268 -745 -2395 -1726 -3217 -373 -313 -830 -583 -1306 -771 -189 -76 -490 -174 -500 -165 -3 3 32 57 78 119 46 63 121 173 168 246 l85 131 92 37 c129 51 425 199 563 280 1034 612 1783 1617 2069 2775 93 376 125 653 125 1075 0 398 -28 656 -109 1008 -162 710 -544 1443 -1024 1967 -143 156 -127 115 -150 376 -12 126 -23 248 -27 272 -3 23 -1 42 4 42 5 0 93 -81 194 -179z"/>
    <path d="M4648 7980 c-231 -17 -472 -61 -728 -132 -164 -45 -200 -64 -238 -121 -21 -32 -27 -52 -27 -101 0 -76 24 -128 78 -167 65 -47 107 -47 280 0 287 77 453 106 687 120 333 20 668 -24 1065 -139 91 -26 120 -25 183 6 121 60 147 219 51 315 -41 41 -97 61 -324 118 -349 87 -718 123 -1027 101z"/>
    <path d="M4759 6157 c-29 -16 -54 -40 -74 -72 l-30 -48 -3 -3019 -2 -3018 205 0 205 0 -2 3018 -3 3019 -30 48 c-38 62 -98 95 -170 95 -35 0 -66 -8 -96 -23z"/>
  </g>
</svg>
